# xmcd CD database file
#
# Track frame offsets:
#	150
#	32299
#	53939
#	85398
#	115810
#	157784
#	192490
#	216600
#	232851
#	246680
#	259791
#
# Disc length: 3690 seconds
#
# Revision: 0
# Processed by: cddbd v1.5.2PL0 Copyright (c) Steve Scherf et al.
# Submitted via: CDex 1.70beta2
#
DISCID=960e680b
DTITLE=Stan Getz Quartet with Lou Levy - Complete Studio Master Takes  1955-´57   -   CD2
DYEAR=2007
DGENRE=Jazz
TTITLE0=Woody´n You
TTITLE1=Smiles
TTITLE2=Three little Words
TTITLE3=Time after Time
TTITLE4=This can´t be Love
TTITLE5=All God´s Chillun got Rhythm
TTITLE6=But beautiful
TTITLE7=Nobody else but me
TTITLE8=Down by the Sycamore Tree
TTITLE9=I hadn´t anyone ´till You
TTITLE10=With the Wind and the Rain in Your Hair
EXTD=YEAR: 2007
EXTT0=
EXTT1=
EXTT2=
EXTT3=
EXTT4=
EXTT5=
EXTT6=
EXTT7=
EXTT8=
EXTT9=
EXTT10=
PLAYORDER=
